HIERARCHY
ROOT Hips
{
 OFFSET 0.000000 0.000000 0.000000
 CHANNELS 6 Xposition Yposition Zposition Yrotation Xrotation Zrotation
 JOINT Chest
 {
  OFFSET 0.000000 9.857222 0.000240
  CHANNELS 3 Yrotation Xrotation Zrotation
  JOINT Chest2
  {
   OFFSET 0.000000 10.876940 -0.000436
   CHANNELS 3 Yrotation Xrotation Zrotation
   JOINT Chest3
   {
    OFFSET 0.000000 9.827798 0.000000
    CHANNELS 3 Yrotation Xrotation Zrotation
    JOINT Chest4
    {
     OFFSET 0.000000 9.827798 0.000000
     CHANNELS 3 Yrotation Xrotation Zrotation
     JOINT Neck
     {
      OFFSET 0.000000 13.831992 0.000000
      CHANNELS 3 Yrotation Xrotation Zrotation
      JOINT Head
      {
       OFFSET 0.000000 9.147643 -0.001036
       CHANNELS 3 Yrotation Xrotation Zrotation
       End Site
       {
        OFFSET 0.000000 17.515799 -0.000541
       }
      }
     }
     JOINT RightCollar
     {
      OFFSET -3.001579 7.717577 0.000000
      CHANNELS 3 Yrotation Xrotation Zrotation
      JOINT RightShoulder
      {
       OFFSET -14.002642 0.000000 0.000000
       CHANNELS 3 Yrotation Xrotation Zrotation
       JOINT RightElbow
       {
        OFFSET -30.053852 0.000000 0.000000
        CHANNELS 3 Yrotation Xrotation Zrotation
        JOINT RightWrist
        {
         OFFSET -24.564923 0.000000 -0.000000
         CHANNELS 3 Yrotation Xrotation Zrotation
         End Site
         {
          OFFSET -18.334355 0.000000 0.000000
         }
        }
       }
      }
     }
     JOINT LeftCollar
     {
      OFFSET 3.001579 7.717577 0.000000
      CHANNELS 3 Yrotation Xrotation Zrotation
      JOINT LeftShoulder
      {
       OFFSET 14.002642 0.000000 0.000000
       CHANNELS 3 Yrotation Xrotation Zrotation
       JOINT LeftElbow
       {
        OFFSET 30.053852 0.000000 0.000000
        CHANNELS 3 Yrotation Xrotation Zrotation
        JOINT LeftWrist
        {
         OFFSET 24.564923 0.000000 -0.000000
         CHANNELS 3 Yrotation Xrotation Zrotation
         End Site
         {
          OFFSET 18.334355 0.000000 0.000000
         }
        }
       }
      }
     }
    }
   }
  }
 }
 JOINT RightHip
 {
  OFFSET -8.003235 -0.001175 -0.000120
  CHANNELS 3 Yrotation Xrotation Zrotation
  JOINT RightKnee
  {
   OFFSET 0.000000 -41.759727 0.000113
   CHANNELS 3 Yrotation Xrotation Zrotation
   JOINT RightAnkle
   {
    OFFSET 0.000000 -40.728748 0.000159
    CHANNELS 3 Yrotation Xrotation Zrotation
    JOINT RightToe
    {
     OFFSET 0.000000 -6.515296 14.732841
     CHANNELS 3 Yrotation Xrotation Zrotation
     End Site
     {
      OFFSET 0.000000 -1.502839 6.412115
     }
    }
   }
  }
 }
 JOINT LeftHip
 {
  OFFSET 8.003235 -0.001175 -0.000120
  CHANNELS 3 Yrotation Xrotation Zrotation
  JOINT LeftKnee
  {
   OFFSET 0.000000 -41.759727 0.000113
   CHANNELS 3 Yrotation Xrotation Zrotation
   JOINT LeftAnkle
   {
    OFFSET 0.000000 -40.728748 0.000159
    CHANNELS 3 Yrotation Xrotation Zrotation
    JOINT LeftToe
    {
     OFFSET 0.000000 -6.515296 14.732841
     CHANNELS 3 Yrotation Xrotation Zrotation
     End Site
     {
      OFFSET 0.000000 -1.502839 6.412115
     }
    }
   }
  }
 }
}
MOTION
Frames: 11
Frame Time: 0.016667
0.000000 88.822259 0.000000 0.000000 -5.826342 0.000000 0.000000 11.116423 0.000000 0.000000 -5.290081 0.000000 0.000000 0.000000 0.000000 0.000000 0.000000 0.000000 0.000000 12.665069 0.000000 0.000000 0.575450 0.000000 0.000000 0.000000 0.000000 0.000000 0.000000 0.000000 2.337306 0.000000 0.000000 -2.337306 0.000000 0.000000 0.000000 0.000000 0.000000 0.000000 0.000000 0.000000 -2.337306 0.000000 0.000000 2.337306 0.000000 0.000000 0.000000 8.578828 0.000000 0.000000 1.905768 0.000000 0.000000 -4.658254 0.000000 0.000000 0.000000 0.000000 0.000000 8.578828 0.000000 0.000000 1.905768 0.000000 0.000000 -4.658254 0.000000 0.000000 0.000000 0.000000
19.333451 90.457314 16.507615 -31.592146 -15.703681 -0.254338 1.272320 8.239871 -0.108183 0.563734 3.684359 0.039500 0.563734 3.684359 0.039500 0.422416 2.763308 0.026212 -6.958933 21.612570 1.800018 -13.105447 4.422349 5.209733 8.702196 4.443511 10.596775 40.734013 -11.148429 89.139713 48.564477 -48.124650 -51.924360 4.931587 -3.347471 -1.068837 -18.562988 11.641095 -12.570959 -25.639776 2.821418 -58.948222 -129.814441 -79.115248 117.668588 0.151331 1.634070 -0.144549 -4.257124 26.381818 -7.063448 -1.527744 -4.984385 5.703098 -0.368960 -5.412399 0.973788 -0.697511 0.179803 -0.277661 -0.891572 15.995589 1.689040 0.243564 3.525297 -1.912015 1.792707 -3.984196 0.022717 0.073534 -0.029190 0.046551
19.345274 90.452025 16.528108 -31.556883 -15.798556 -0.255249 1.252482 8.258705 -0.105750 0.563017 3.680529 0.045699 0.563017 3.680529 0.045699 0.421842 2.760442 0.030868 -6.964829 21.570392 1.830208 -13.127604 4.348696 5.270196 8.810783 4.472591 10.561576 40.896954 -11.283907 88.833540 47.504721 -48.205034 -50.449161 4.808811 -3.365433 -0.978697 -18.484853 11.541262 -12.494515 -25.921714 2.765746 -59.065502 -122.882068 -80.011656 110.603937 0.135440 1.737929 0.086421 -4.275638 26.482901 -7.089447 -1.554575 -4.966725 5.710608 -0.350974 -5.436688 0.976302 -0.697383 0.183530 -0.277616 -0.988630 16.070464 1.649990 0.260424 3.578266 -1.922018 1.800760 -4.025728 0.037544 0.078238 -0.019235 0.048601
19.359798 90.444249 16.549254 -31.525366 -15.868841 -0.265145 1.236187 8.278562 -0.092453 0.560119 3.678506 0.052171 0.560119 3.678506 0.052171 0.419630 2.758930 0.035740 -6.978073 21.514709 1.869050 -13.166511 4.251932 5.349724 8.958796 4.545545 10.544225 41.004340 -11.479463 88.251112 46.001655 -48.247399 -48.417862 4.700732 -3.356678 -1.018099 -18.415430 11.444870 -12.385437 -26.307939 2.623377 -59.199302 -115.258750 -80.631546 103.009991 0.153481 1.752141 0.281013 -4.281779 26.554699 -7.104841 -1.600774 -4.938792 5.730888 -0.346396 -5.468719 0.963063 -0.677600 0.193065 -0.266957 -1.066807 16.115502 1.617146 0.259906 3.640976 -1.912201 1.811749 -4.079610 0.043030 0.077442 -0.000789 0.047842
19.371487 90.437792 16.566787 -31.497994 -15.955495 -0.293382 1.219279 8.321467 -0.060119 0.555995 3.687004 0.058171 0.555995 3.687004 0.058171 0.416501 2.765309 0.040255 -6.996456 21.449647 1.913243 -13.216996 4.139080 5.441365 9.148445 4.696118 10.569528 41.262142 -11.772377 87.528609 44.386203 -48.169464 -46.266152 4.566287 -3.361323 -1.124049 -18.374391 11.398960 -12.253451 -26.978022 2.477663 -59.312416 -110.157972 -80.848037 98.092976 0.142133 1.732801 0.518071 -4.250205 26.641161 -7.070233 -1.665809 -4.908811 5.739441 -0.434656 -5.477748 0.926168 -0.602242 0.184261 -0.231414 -1.103585 16.174336 1.608927 0.259367 3.709461 -1.891894 1.828089 -4.139005 0.043173 0.075805 0.021214 0.045667
19.387194 90.433849 16.570660 -31.499061 -16.024823 -0.312999 1.214660 8.360908 -0.025503 0.547419 3.708939 0.067110 0.547419 3.708939 0.067110 0.410013 2.781767 0.046989 -7.015950 21.374709 1.950017 -13.268259 4.007214 5.521052 9.369144 4.900223 10.604792 41.915752 -12.134275 86.774706 43.090970 -48.091846 -44.531739 4.429132 -3.354623 -1.209324 -18.376740 11.349953 -12.124707 -27.927361 2.392135 -59.430521 -107.936027 -80.796340 96.064585 0.132045 1.839747 0.893097 -4.149252 26.691628 -7.031580 -1.738294 -4.860683 5.756029 -0.440226 -5.497346 0.907603 -0.583996 0.186322 -0.221220 -1.112874 16.205452 1.618392 0.262647 3.781790 -1.898764 1.826921 -4.175762 0.053503 0.077172 0.028016 0.044229
19.413282 90.433666 16.569115 -31.503504 -16.097577 -0.333322 1.213668 8.437384 0.005237 0.541379 3.746723 0.073724 0.541379 3.746723 0.073724 0.405437 2.810110 0.051950 -7.037282 21.284546 1.988921 -13.324737 3.847726 5.606817 9.565376 5.044589 10.658120 42.835095 -12.499795 85.945739 41.711362 -47.947826 -42.715001 4.350043 -3.373406 -1.345959 -18.424650 11.276707 -11.952725 -28.961283 2.334436 -59.581904 -105.421201 -80.563378 93.552424 0.159284 1.978334 1.398235 -3.993564 26.733040 -6.963475 -1.828083 -4.794398 5.764461 -0.487494 -5.516886 0.890738 -0.563058 0.185389 -0.210847 -1.156392 16.222768 1.583009 0.290439 3.875319 -1.848532 1.817278 -4.203229 0.048251 0.073875 0.024241 0.038848
19.455458 90.437874 16.562962 -31.514857 -16.196660 -0.377958 1.230106 8.528395 0.056250 0.535290 3.797890 0.077307 0.535290 3.797890 0.077307 0.400839 2.848488 0.054628 -7.058414 21.189040 2.026825 -13.381138 3.678276 5.691415 9.769884 5.077251 10.740122 43.789104 -12.716628 84.970090 39.881876 -47.644233 -40.252789 4.306485 -3.325971 -1.512052 -18.485685 11.204615 -11.725814 -29.864754 2.224618 -59.798584 -101.533541 -80.121491 89.327904 0.238501 2.039988 1.964280 -3.745930 26.792614 -6.831898 -1.972719 -4.720515 5.766115 -0.575073 -5.511436 0.855406 -0.488621 0.168950 -0.176721 -1.200769 16.251455 1.517360 0.373955 3.984983 -1.708120 1.797712 -4.223217 0.014546 0.058350 0.016769 0.026724
19.503084 90.449677 16.553976 -31.525774 -16.346789 -0.433728 1.244114 8.622762 0.121801 0.522035 3.858579 0.080024 0.522035 3.858579 0.080024 0.390872 2.894005 0.056695 -7.073286 21.100861 2.055827 -13.423245 3.520607 5.757514 10.101726 5.147593 10.852250 44.859912 -12.808569 83.748542 37.614333 -47.149996 -37.189483 4.276285 -3.349147 -1.591372 -18.537143 11.226356 -11.474720 -30.565561 1.969389 -59.980977 -98.757062 -79.468150 85.847836 0.317934 1.869018 2.426805 -3.497818 26.897016 -6.679083 -2.120350 -4.649811 5.753863 -0.683701 -5.470746 0.817766 -0.398795 0.127196 -0.136708 -1.115007 16.326508 1.508312 0.368262 4.089314 -1.587201 1.791454 -4.215306 -0.011342 0.047247 -0.008913 0.016399
19.540978 90.466704 16.537020 -31.541623 -16.501765 -0.485539 1.232765 8.718829 0.188397 0.499398 3.920568 0.086837 0.499398 3.920568 0.086837 0.373844 2.940500 0.061895 -7.075873 21.015747 2.073382 -13.439696 3.365822 5.799250 10.536917 5.285656 10.954150 45.967645 -12.958158 82.290734 34.901282 -46.276689 -33.556929 4.220807 -3.459890 -1.493046 -18.601870 11.322409 -11.285547 -31.074423 1.687490 -59.883165 -100.865682 -78.774345 87.244514 0.378110 1.821619 2.378502 -3.333723 27.005326 -6.565194 -2.201763 -4.599331 5.738091 -0.752204 -5.401445 0.788957 -0.328419 0.069405 -0.106568 -1.006230 16.418859 1.536476 0.283028 4.162266 -1.521814 1.786279 -4.176199 -0.022117 0.046416 -0.047778 0.013198
19.576652 90.483592 16.520968 -31.542175 -16.627562 -0.545685 1.159802 8.825153 0.266375 0.464646 3.967901 0.101139 0.464646 3.967901 0.101139 0.347687 2.976005 0.072803 -7.062040 20.932989 2.070914 -13.420533 3.211023 5.799975 10.986924 5.445137 11.007425 47.239674 -13.163640 80.636541 32.128512 -45.124864 -29.761415 4.204664 -3.619751 -1.212832 -18.568747 11.351730 -11.141816 -32.000526 1.529601 -59.719864 -106.139334 -77.911493 91.630611 0.390345 1.855846 2.430499 -3.318204 27.084072 -6.479377 -2.184529 -4.571059 5.699926 -0.869908 -5.320716 0.738203 -0.203219 0.012204 -0.050566 -1.009127 16.498288 1.513276 0.276996 4.210122 -1.397155 1.857852 -4.140258 -0.069948 0.034677 -0.070657 0.010514
